<?xml version="1.0" encoding="UTF-8"?>
<svg id="Ebene_2" data-name="Ebene 2" xmlns="http://www.w3.org/2000/svg" viewBox="0 0 1008.24 215.55">
  <defs>
    <style>
      .cls-1 {
        fill: #0c363d;
      }
    </style>
  </defs>
  <g id="Ebene_1-2" data-name="Ebene 1">
    <path class="cls-1" d="M468.95,106.04h-32.79l-17.63-20.95h-37.64v20.95h-24.5v-40.48h68.89c3.79,0,6.98-.79,9.59-2.37,2.61-1.58,3.91-3.75,3.91-6.51,0-3.08-1.18-5.38-3.55-6.92-2.37-1.54-5.68-2.31-9.94-2.31h-68.89l15.98-20.6h50.9c4.5,0,9.15.42,13.97,1.24,4.81.83,9.19,2.31,13.14,4.44,3.94,2.13,7.2,5.01,9.76,8.64,2.56,3.63,3.85,8.29,3.85,13.97,0,3.08-.47,6-1.42,8.76-.95,2.76-2.31,5.25-4.08,7.46-1.77,2.21-3.95,4.08-6.51,5.63-2.56,1.54-5.46,2.63-8.7,3.26,1.34,1.03,2.84,2.33,4.5,3.91,1.66,1.58,3.87,3.75,6.63,6.51l14.56,15.39h0Z"/>
    <path class="cls-1" d="M580.57,71.47c0,23.91-16.45,35.87-49.36,35.87-9.55,0-17.75-.75-24.62-2.25-6.87-1.5-12.53-3.75-16.99-6.75-4.46-3-7.74-6.73-9.83-11.19s-3.14-9.69-3.14-15.68V26.85h24.38v44.62c0,2.92.39,5.37,1.18,7.34s2.27,3.57,4.44,4.79c2.17,1.23,5.23,2.09,9.17,2.6,3.95.52,9.08.77,15.39.77,4.73,0,8.68-.27,11.83-.83,3.16-.55,5.68-1.46,7.58-2.72,1.89-1.26,3.26-2.88,4.08-4.85.83-1.97,1.24-4.34,1.24-7.1V26.85h24.62v44.62h0Z"/>
    <path class="cls-1" d="M667.81,58.45c9.71,0,17.09,1.8,22.13,5.38,5.05,3.59,7.58,9.02,7.58,16.28,0,4.03-.63,7.66-1.89,10.89-1.26,3.24-3.27,5.96-6.04,8.17-2.76,2.21-6.29,3.91-10.59,5.09-4.3,1.18-9.45,1.77-15.44,1.77h-73.75l15.74-20.36h59.89c2.92,0,5.05-.45,6.39-1.36,1.34-.9,2.01-2.39,2.01-4.44s-.67-3.51-2.01-4.38c-1.34-.87-3.47-1.3-6.39-1.3h-43.09c-5.13,0-9.55-.55-13.26-1.66-3.71-1.1-6.79-2.64-9.23-4.61-2.45-1.97-4.26-4.36-5.45-7.16-1.18-2.8-1.77-5.9-1.77-9.29,0-3.71.65-7.08,1.95-10.12,1.3-3.03,3.31-5.62,6.04-7.75,2.72-2.13,6.23-3.79,10.53-4.97,4.3-1.18,9.45-1.77,15.45-1.77h68.77l-15.74,20.6h-54.92c-2.84,0-4.95.4-6.33,1.18-1.38.79-2.07,2.21-2.07,4.26s.69,3.49,2.07,4.32c1.38.83,3.49,1.24,6.33,1.24h43.09Z"/>
    <path class="cls-1" d="M799.67,26.85l-15.86,20.6h-28.29v58.59h-24.5v-58.59h-37.17l15.86-20.6h89.96Z"/>
    <path class="cls-1" d="M899.1,85.68l-15.74,20.36h-76.23V26.85h91.74l-15.86,20.6h-51.26v9.47h62.74l-14.09,17.99h-48.65v10.77h67.35Z"/>
    <path class="cls-1" d="M1008.24,65.67c0,5.76-1.21,11.11-3.61,16.04-2.41,4.93-5.72,9.19-9.94,12.78-4.22,3.59-9.25,6.41-15.09,8.46-5.84,2.05-12.19,3.08-19.05,3.08h-53.03v-49.36h24.62v29h28.41c3.39,0,6.53-.45,9.41-1.36,2.88-.9,5.35-2.19,7.4-3.85,2.05-1.66,3.67-3.65,4.85-5.98,1.18-2.33,1.77-4.91,1.77-7.75s-.59-5.33-1.77-7.69c-1.18-2.37-2.84-4.4-4.97-6.09-2.13-1.7-4.62-3.04-7.46-4.03-2.84-.98-5.92-1.48-9.23-1.48h-53.03l15.62-20.6h37.4c6.94,0,13.33.95,19.17,2.84,5.84,1.89,10.87,4.56,15.09,7.99,4.22,3.43,7.52,7.54,9.88,12.31,2.37,4.77,3.55,10,3.55,15.68h0Z"/>
    <g>
      <path class="cls-1" d="M361.55,194.05l-16.06,20.77h-40.57c-7.01,0-13.49-1.05-19.44-3.14-5.96-2.09-11.09-4.97-15.4-8.63-4.31-3.66-7.69-8.01-10.14-13.04-2.46-5.03-3.68-10.49-3.68-16.36s1.23-11.25,3.68-16.12c2.45-4.87,5.84-9.06,10.14-12.56,4.3-3.5,9.44-6.2,15.4-8.09,5.96-1.89,12.44-2.84,19.44-2.84h56.64l-16.06,21.01h-40.57c-3.38,0-6.52.48-9.42,1.45-2.9.97-5.4,2.32-7.49,4.05-2.1,1.73-3.74,3.8-4.95,6.22-1.21,2.42-1.81,5.07-1.81,7.97s.58,5.53,1.75,7.91c1.16,2.37,2.82,4.41,4.95,6.1,2.13,1.69,4.65,3,7.55,3.92,2.9.93,6.04,1.39,9.42,1.39h56.64Z"/>
      <path class="cls-1" d="M400.31,214.81l15.09-20.77h27.84c2.61,0,4.89.08,6.82.24-1.13-1.45-2.43-3.28-3.92-5.5-1.49-2.21-2.92-4.29-4.29-6.22l-14.49-21.37-37.92,53.62h-29.59l51.81-73.06c1.69-2.33,3.82-4.43,6.4-6.28,2.58-1.85,5.84-2.78,9.78-2.78s6.94.86,9.48,2.6c2.54,1.73,4.69,3.89,6.46,6.46l50.48,73.06h-93.95Z"/>
      <path class="cls-1" d="M617.81,214.81h-33.45l-17.99-21.37h-38.4v21.37h-25v-41.3h70.28c3.87,0,7.12-.81,9.78-2.42,2.66-1.61,3.98-3.82,3.98-6.64,0-3.14-1.21-5.5-3.62-7.06-2.42-1.57-5.8-2.35-10.14-2.35h-70.28l16.3-21.01h51.93c4.59,0,9.34.42,14.25,1.27,4.91.85,9.38,2.35,13.41,4.53,4.02,2.18,7.35,5.11,9.96,8.82,2.61,3.7,3.93,8.45,3.93,14.25,0,3.14-.48,6.12-1.45,8.94-.97,2.82-2.35,5.36-4.17,7.61-1.81,2.26-4.03,4.17-6.64,5.74-2.62,1.57-5.58,2.68-8.88,3.32,1.37,1.05,2.9,2.37,4.59,3.98,1.69,1.61,3.95,3.82,6.76,6.64l14.85,15.7h0Z"/>
      <path class="cls-1" d="M741.35,214.81h-33.45l-17.99-21.37h-38.4v21.37h-25v-41.3h70.28c3.87,0,7.12-.81,9.78-2.42,2.66-1.61,3.98-3.82,3.98-6.64,0-3.14-1.21-5.5-3.62-7.06-2.42-1.57-5.8-2.35-10.14-2.35h-70.28l16.3-21.01h51.93c4.59,0,9.34.42,14.25,1.27,4.91.85,9.38,2.35,13.41,4.53,4.02,2.18,7.35,5.11,9.96,8.82,2.61,3.7,3.93,8.45,3.93,14.25,0,3.14-.48,6.12-1.45,8.94-.97,2.82-2.35,5.36-4.17,7.61-1.81,2.26-4.03,4.17-6.64,5.74-2.62,1.57-5.58,2.68-8.88,3.32,1.37,1.05,2.9,2.37,4.59,3.98,1.69,1.61,3.95,3.82,6.76,6.64l14.85,15.7h0Z"/>
      <path class="cls-1" d="M775.65,214.81h-25v-80.79h25v80.79Z"/>
      <path class="cls-1" d="M885.06,194.05l-16.06,20.77h-77.77v-80.79h93.59l-16.18,21.01h-52.29v9.66h64.01l-14.37,18.36h-49.63v10.99h68.72Z"/>
      <path class="cls-1" d="M1008.24,214.81h-33.45l-17.99-21.37h-38.4v21.37h-25v-41.3h70.28c3.87,0,7.12-.81,9.78-2.42,2.66-1.61,3.98-3.82,3.98-6.64,0-3.14-1.21-5.5-3.62-7.06-2.42-1.57-5.8-2.35-10.14-2.35h-70.28l16.3-21.01h51.93c4.59,0,9.34.42,14.25,1.27,4.91.85,9.38,2.35,13.41,4.53,4.02,2.18,7.35,5.11,9.96,8.82s3.93,8.45,3.93,14.25c0,3.14-.48,6.12-1.45,8.94-.97,2.82-2.35,5.36-4.17,7.61-1.81,2.26-4.03,4.17-6.64,5.74-2.62,1.57-5.58,2.68-8.88,3.32,1.37,1.05,2.9,2.37,4.59,3.98s3.95,3.82,6.76,6.64l14.85,15.7h0Z"/>
    </g>
    <polygon class="cls-1" points="267.32 26.85 255.43 47.45 288.43 47.45 288.43 106.04 312.94 106.04 312.94 47.45 341.23 47.45 357.09 26.85 267.32 26.85"/>
    <path class="cls-1" d="M75.58,78.88h-36.53l54.86,94.73L194.33,0h36.68l-117.96,203.75c-5.62,10.52-18.3,15.16-29.13,9.12-6.26-3.47-8.9-9.43-12.39-15.29C48.42,158.75,26.68,119.07,3.51,80.27c-8.97-15.85.03-31.75,18.23-32.78h108.72l-36.09,62.49"/>
  </g>
</svg>
